<?xml version="1.0" encoding="utf-8"?>
<!-- Generator: Adobe Illustrator 13.0.0, SVG Export Plug-In  -->
<!DOCTYPE svg PUBLIC "-//W3C//DTD SVG 1.1//EN" "http://www.w3.org/Graphics/SVG/1.1/DTD/svg11.dtd" [
	<!ENTITY ns_flows "http://ns.adobe.com/Flows/1.0/">
]>
<svg version="1.1"
	 xmlns="http://www.w3.org/2000/svg" xmlns:xlink="http://www.w3.org/1999/xlink" xmlns:a="http://ns.adobe.com/AdobeSVGViewerExtensions/3.0/"
	 x="0px" y="0px" width="551px" height="537px" viewBox="-0.4 0.2 551 537" enable-background="new -0.4 0.2 551 537"
	 xml:space="preserve">
<defs>
</defs>
<path d="M286.2,4.5c-6-6-15.7-6-21.6,0L4.5,264.6c-2.9,2.9-4.5,6.8-4.5,10.8v260.1c0,19.7,30.6,19.7,30.6,0V281.7L275.4,36.9
	l244.8,244.8v253.8c0,19.7,30.6,19.7,30.6,0V275.4c0-4.1-1.6-8-4.5-10.8L286.2,4.5z"/>
<path d="M388.8,537.4l-13.1-29.3h11.4l-8.1-18.2h-11.9l-11-24.6h13.6l-8.1-18.2h-14l-9.3-19.9l44.9-28.8V259.7l-16.1-25.9l0.8-42
	c0,0,1.7-36-95-36c-96.7,0-95,36-95,36l0.8,42l-16.1,25.9v138.2l42.8,27.6l-9.8,21.6h-18.7l-8.1,18.2h18.2l-11,24.6h-18.7l-8.1,18.2
	h18.2l-13.1,29.3h20.3l13.1-28.8h42h11h114.5l13.1,29.3h19.9V537.4z M355.7,381.4c0,6.8-5.5,12.3-12.3,12.3s-12.3-5.5-12.3-12.3
	s5.5-12.3,12.3-12.3C350.2,368.7,355.7,374.2,355.7,381.4z M287.5,177.1c0,0,41.5,4.7,56,19.1v37.3l-56-13.1V177.1z M273.1,249.1
	c9.3,0,17,7.6,17,17c0,9.3-7.6,17-17,17c-9.3,0-17-7.6-17-17C256.1,256.8,263.7,249.1,273.1,249.1z M199.7,196.6
	c14.4-14.4,56-19.1,56-19.1v43.7l-56,13.1V196.6z M199.7,381.4c0-6.8,5.5-12.3,12.3-12.3s12.3,5.5,12.3,12.3s-5.5,12.3-12.3,12.3
	S199.7,388.2,199.7,381.4z M222.6,432.7h50.4H321l6.8,14.4h-67h-26.7h-18.2L222.6,432.7z M241.3,489.9h-11h-33.9l11-24.6h26.3h26.7
	h75l11,24.6H241.3z"/>
</svg>
