<svg xmlns="http://www.w3.org/2000/svg" xmlns:xlink="http://www.w3.org/1999/xlink" version="1.1" x="0px" y="0px" viewBox="0 0 100 125" enable-background="new 0 0 100 100" xml:space="preserve"><path d="M51.768,5.732c-0.977-0.977-2.559-0.977-3.535,0l-42.5,42.5C5.264,48.701,5,49.337,5,50v42.5c0,3.224,5,3.224,5,0V51.036  l40-40l40,40V92.5c0,3.224,5,3.224,5,0V50c0-0.663-0.264-1.299-0.732-1.768L51.768,5.732z"/><path d="M32.5,95h35c0.663,0,1.299-0.263,1.768-0.732l2.5-2.5C72.236,91.299,72.5,90.663,72.5,90V50  c0-0.663-0.264-1.299-0.732-1.768l-2.5-2.5C68.799,45.263,68.163,45,67.5,45H57.063c-1.033-2.908-3.804-5-7.063-5  s-6.03,2.092-7.063,5H32.5c-0.663,0-1.299,0.263-1.768,0.732l-2.5,2.5C27.764,48.701,27.5,49.337,27.5,50v40  c0,0.663,0.264,1.299,0.732,1.768l2.5,2.5C31.201,94.737,31.837,95,32.5,95z M50,45c1.379,0,2.5,1.122,2.5,2.5S51.379,50,50,50  s-2.5-1.122-2.5-2.5S48.621,45,50,45z M32.5,51.036L33.535,50h9.402c1.033,2.908,3.804,5,7.063,5s6.03-2.092,7.063-5h9.402  l1.035,1.036v37.929L66.465,90h-32.93L32.5,88.964V51.036z"/><path d="M37.5,87.5c0.66,0,1.3-0.27,1.77-0.73C39.729,86.3,40,85.66,40,85c0-0.66-0.271-1.3-0.73-1.77c-0.93-0.93-2.609-0.93-3.54,0  C35.27,83.7,35,84.34,35,85c0,0.66,0.27,1.3,0.729,1.77C36.2,87.23,36.84,87.5,37.5,87.5z"/><path d="M60.729,83.23C60.27,83.7,60,84.34,60,85c0,0.66,0.27,1.31,0.729,1.77c0.471,0.46,1.11,0.73,1.771,0.73s1.3-0.27,1.77-0.73  C64.729,86.3,65,85.66,65,85c0-0.66-0.271-1.3-0.73-1.77C63.33,82.3,61.66,82.3,60.729,83.23z"/><path d="M37.5,72.5h25c1.381,0,2.5-1.119,2.5-2.5V60c0-1.381-1.119-2.5-2.5-2.5h-25c-1.381,0-2.5,1.119-2.5,2.5v10  C35,71.381,36.119,72.5,37.5,72.5z M52.5,62.5H60v5h-7.5V62.5z M40,62.5h7.5v5H40V62.5z"/><text x="0" y="115" fill="#000000" font-size="5px" font-weight="bold" font-family="'Helvetica Neue', Helvetica, Arial-Unicode, Arial, Sans-serif">Created by Arthur Shlain</text><text x="0" y="120" fill="#000000" font-size="5px" font-weight="bold" font-family="'Helvetica Neue', Helvetica, Arial-Unicode, Arial, Sans-serif">from the Noun Project</text></svg>