<?xml version="1.0" encoding="utf-8"?>
<!-- Generator: Adobe Illustrator 13.0.0, SVG Export Plug-In  -->
<!DOCTYPE svg PUBLIC "-//W3C//DTD SVG 1.1//EN" "http://www.w3.org/Graphics/SVG/1.1/DTD/svg11.dtd" [
	<!ENTITY ns_flows "http://ns.adobe.com/Flows/1.0/">
]>
<svg version="1.1"
	 xmlns="http://www.w3.org/2000/svg" xmlns:xlink="http://www.w3.org/1999/xlink" xmlns:a="http://ns.adobe.com/AdobeSVGViewerExtensions/3.0/"
	 x="0px" y="0px" width="598px" height="776px" viewBox="-0.5 -0.5 598 776" enable-background="new -0.5 -0.5 598 776"
	 xml:space="preserve">
<defs>
</defs>
<path d="M379.993,0H0v776.16h597.885V226.181L379.993,0z M390.199,101.266l102.632,106.521H390.199V101.266z M534.977,713.299
	H62.908V62.962h280.093v192.022h191.968v458.314H534.977z"/>
<path stroke="#000000" stroke-width="0.6555" d="M83.117,95.975v3.084v574.45v8.862v3.084h2.186h6.42h405.223h0.275h1.502h17.072
	h2.186v-3.084v-1.348v-0.174v-7.328v-11.946v-3.083h-2.186h-6.419h-2.186v3.083v8.868h-6.282V296.479v-3.084h-2.186h-71.43h-2.186
	v3.084v373.964h-11.608v-8.868v-3.083h-2.186h-6.419h-2.186v3.083v8.868h-6.692V348.818v-3.083h-2.185h-71.43h-2.186v3.083v321.625
	h-11.199v-8.868v-3.083h-2.186h-6.419h-2.186v3.083v8.868h-7.238V226.262v-3.09h-2.186h-71.43h-2.185v3.09v444.182h-10.653v-8.868
	v-3.083h-2.186h-6.418h-2.186v3.083v8.868h-7.648V480.632v-3.089h-2.186h-71.566h-2.185v3.089v189.812H93.909v-53.381h7.512h2.186
	v-3.084v-9.053v-3.09h-2.186h-7.512v-69.177h7.512h2.186v-3.083v-9.06v-3.084h-2.186h-7.512v-68.984h7.512h2.186v-3.084v-9.06
	v-3.083h-2.186h-7.512v-69.183h7.512h2.186v-3.077v-9.06v-3.084h-2.186h-7.512v-68.99h7.512h2.186v-3.078v-9.06v-3.083h-2.186
	h-7.512v-69.183h7.512h2.186v-3.078v-9.059v-3.084h-2.186h-7.512v-68.99h7.512h2.186v-3.078v-9.06v-3.084h-2.186h-9.696h-3.961
	h-0.136h-2.322H83.12L83.117,95.975z M87.488,102.143h0.136h0.136h3.961h7.512v2.892h-7.512h-2.186v3.084v75.151v3.084h2.186h7.512
	v2.893h-7.512h-2.186v3.083v75.344v3.084h2.186h7.512v2.892h-7.512h-2.186v3.084v75.152v3.089h2.186h7.512v2.887h-7.512h-2.186
	v3.083v75.344v3.09h2.186h7.512v2.886h-7.512h-2.186v3.084v75.152v3.089h2.186h7.512v2.887h-7.512h-2.186v3.083v75.35v3.084h2.186
	h7.512v2.887h-7.512h-2.186v3.089v59.542v3.084h2.186h20.623h2.186v-3.084l65.166,3.444l2.029-193.255v189.811v3.084h2.186h12.019
	h2.187v-3.084v-8.861h2.047v8.861v3.084h2.186h15.023h2.187v-3.084l-1.104,6.069h67.059l1.104-6.069v3.084h2.186h11.608h2.186
	v-3.084v-8.861h2.048v8.861v3.084h2.186h15.57h2.185v-3.084l2.76,6.185h67.06l-2.76-6.185v3.084h2.186h11.063h2.185v-3.084v-8.861
	h2.049v8.861v3.084h2.186h15.979h2.186v-3.084l0.553,4.361l65.402,3.119l1.104-7.48v3.084h2.185h10.654h2.185v-3.084v-8.861h2.049
	v8.861v5.784H498.72h-1.502h-0.274H91.72h-4.233v-5.784V102.142L87.488,102.143z"/>
</svg>
