<?xml version="1.0" encoding="utf-8"?>
<!-- Generator: Adobe Illustrator 13.0.0, SVG Export Plug-In  -->
<!DOCTYPE svg PUBLIC "-//W3C//DTD SVG 1.1//EN" "http://www.w3.org/Graphics/SVG/1.1/DTD/svg11.dtd" [
	<!ENTITY ns_flows "http://ns.adobe.com/Flows/1.0/">
]>
<svg version="1.1"
	 xmlns="http://www.w3.org/2000/svg" xmlns:xlink="http://www.w3.org/1999/xlink" xmlns:a="http://ns.adobe.com/AdobeSVGViewerExtensions/3.0/"
	 x="0px" y="0px" width="345px" height="551px" viewBox="-0.5 -0.5 345 551" enable-background="new -0.5 -0.5 345 551"
	 xml:space="preserve">
<defs>
</defs>
<path fill="#FFFFFF" d="M345.168,550.8l-18.972-42.228h16.523l-11.628-26.316h-17.136l-15.912-35.496h19.584L306,420.444h-20.196
	L272.34,391.68l64.872-41.615V149.94l-23.256-37.332l1.224-60.588c0,0,2.448-52.021-137.088-52.021S41.004,52.021,41.004,52.021
	l1.224,60.588L18.972,149.94v199.512l61.813,39.779l-14.076,31.213H39.779L28.151,446.76h26.316l-15.912,35.496H11.628L0,508.572
	h26.315L7.344,550.8H36.72l18.972-41.616h60.588h15.912h165.24l18.973,42.229h28.764V550.8z M297.432,325.584
	c0,9.792-7.956,17.748-17.748,17.748s-17.748-7.956-17.748-17.748s7.956-17.748,17.748-17.748
	C289.476,307.225,297.432,315.18,297.432,325.584z M198.9,30.601c0,0,59.976,6.731,80.783,27.539v53.856L198.9,93.024V30.601z
	 M178.092,134.64c13.464,0,24.48,11.017,24.48,24.48s-11.017,24.48-24.48,24.48s-24.48-11.017-24.48-24.48
	S164.628,134.64,178.092,134.64z M72.216,58.752C93.023,37.944,153,31.212,153,31.212v63.036L72.216,113.22V58.752z M72.216,325.584
	c0-9.792,7.956-17.748,17.748-17.748s17.748,7.956,17.748,17.748s-7.956,17.748-17.748,17.748S72.216,335.376,72.216,325.584z
	 M105.264,399.636h72.828h69.156l9.792,20.809h-96.696h-38.556H95.472L105.264,399.636z M132.191,482.256h-15.912h-48.96
	l15.912-35.496h37.944h38.556h108.324l15.912,35.496H132.191z"/>
</svg>
