<?xml version="1.0" encoding="utf-8"?>
<!-- Generator: Adobe Illustrator 13.0.0, SVG Export Plug-In  -->
<!DOCTYPE svg PUBLIC "-//W3C//DTD SVG 1.1//EN" "http://www.w3.org/Graphics/SVG/1.1/DTD/svg11.dtd" [
	<!ENTITY ns_flows "http://ns.adobe.com/Flows/1.0/">
]>
<svg version="1.1"
	 xmlns="http://www.w3.org/2000/svg" xmlns:xlink="http://www.w3.org/1999/xlink" xmlns:a="http://ns.adobe.com/AdobeSVGViewerExtensions/3.0/"
	 x="0px" y="0px" width="565px" height="565px" viewBox="-0.5 -0.5 565 565" enable-background="new -0.5 -0.5 565 565"
	 xml:space="preserve">
<defs>
</defs>
<path d="M339.317,294.445l1.83-1.83c7.008-7.008,10.056-17.368,7.313-27.118l-17.668-65.508
	c-2.742-9.749-10.361-17.369-19.805-19.805l-65.509-17.668c-7.619-2.136-15.845-0.612-22.546,3.653l71.904,71.904l-56.366,56.365
	l-72.209-72.204c-4.266,6.701-5.484,14.927-3.654,22.546l17.669,65.509c2.741,9.749,10.361,17.368,19.804,19.804l65.509,17.669
	c9.749,2.741,20.11-0.306,27.118-7.313l16.15-16.15L339.317,294.445z M296.056,265.197l21.328,21.328l-6.096,6.096l-21.328-21.328
	L296.056,265.197z M286.912,316.991l-21.328-21.328l6.096-6.096l21.328,21.328L286.912,316.991z M299.104,305.112l-21.328-21.328
	l6.095-6.096l21.328,21.328L299.104,305.112z"/>
<path d="M346.631,300.234l-46.004,46.004l57.277,57.277c17.668-12.797,33.207-28.336,45.398-46.616L346.631,300.234z"/>
<path d="M565.085,325.755v-93.666l-64.016-19.04c-4.223-13.813-9.168-27.063-15.832-39.608l32.919-59.578l-66.077-66.225
	L392.58,80.275c-12.54-6.677-25.759-11.529-39.56-15.759L334.012,0h-93.667l-19.039,64.511
	c-13.813,4.235-27.063,9.419-39.608,16.096l-59.578-32.804l-66.225,66.151l32.644,59.529c-6.677,12.54-15.661,25.771-19.884,39.584
	L0,232.089v93.666l68.648,19.039c4.223,13.813,11.48,27.063,18.151,39.609l-31.774,59.578l66.665,66.224l59.792-32.638
	c12.54,6.665,25.894,15.153,39.713,19.37l19.149,68.152h93.667l19.045-68.146c13.813-4.211,27.057-11.218,39.609-17.895
	l59.578,31.885l66.218-66.592l-32.638-59.768c6.671-12.533,11.022-25.875,15.251-39.7L565.085,325.755z M287.182,453.032
	c-96.176,0-174.139-77.956-174.139-174.113c0-96.164,77.963-174.127,174.139-174.127c96.17,0,174.12,77.963,174.12,174.127
	C461.302,375.082,383.333,453.032,287.182,453.032z"/>
</svg>
