<?xml version="1.0" encoding="utf-8"?>
<!-- Generator: Adobe Illustrator 13.0.0, SVG Export Plug-In  -->
<!DOCTYPE svg PUBLIC "-//W3C//DTD SVG 1.1//EN" "http://www.w3.org/Graphics/SVG/1.1/DTD/svg11.dtd" [
	<!ENTITY ns_flows "http://ns.adobe.com/Flows/1.0/">
]>
<svg version="1.1"
	 xmlns="http://www.w3.org/2000/svg" xmlns:xlink="http://www.w3.org/1999/xlink" xmlns:a="http://ns.adobe.com/AdobeSVGViewerExtensions/3.0/"
	 x="0px" y="0px" width="564px" height="447px" viewBox="-1.5 -0.5 564 447" enable-background="new -1.5 -0.5 564 447"
	 xml:space="preserve">
<defs>
</defs>
<path d="M350.535,206.097c28.048-20.643,46.261-54.743,46.261-92.24C396.796,51.218,346.019,0,283.38,0
	c-62.638,0-113.416,50.563-113.416,113.201c0,37.497,18.214,72.363,46.262,93.006c-64.168,26.022-109.353,91.671-109.353,165.111
	c0,97.92,353.021,97.92,353.021,0C459.888,297.884,414.697,232.119,350.535,206.097z"/>
<path d="M480.652,208.931c20.624-15.172,34.009-39.891,34.009-67.461c0-46.054-37.332-83.526-83.385-83.526
	c-10.343,0-20.239,1.897-29.376,5.331c6.536,15.435,10.159,32.393,10.159,50.19c0,32.827-12.552,64.309-34.4,87.975
	c59.908,33.495,97.497,97.246,97.497,168.324c0,2.803-0.226,5.765-0.74,8.825c47.705-5.998,86.641-22.295,86.641-48.899
	C561.057,272.449,527.831,228.067,480.652,208.931z"/>
<path d="M91.598,369.764c0-69.774,36.273-132.474,94.327-166.421c0.888-0.814,1.751-1.658,2.602-2.503
	c-21.493-23.642-33.838-54.982-33.838-87.73c0-16.892,3.312-33.018,9.266-47.81c-10.435-4.712-21.995-7.356-34.18-7.356
	c-46.053,0-83.385,37.265-83.385,83.318c0,27.576,13.391,52.534,34.009,67.705C33.226,228.104,0,272.449,0,329.689
	c0,27.675,42.136,44.199,92.448,49.572C91.854,375.963,91.598,372.78,91.598,369.764z"/>
</svg>
