<?xml version="1.0" encoding="utf-8"?>
<!-- Generator: Adobe Illustrator 13.0.0, SVG Export Plug-In  -->
<!DOCTYPE svg PUBLIC "-//W3C//DTD SVG 1.1//EN" "http://www.w3.org/Graphics/SVG/1.1/DTD/svg11.dtd" [
	<!ENTITY ns_flows "http://ns.adobe.com/Flows/1.0/">
]>
<svg version="1.1"
	 xmlns="http://www.w3.org/2000/svg" xmlns:xlink="http://www.w3.org/1999/xlink" xmlns:a="http://ns.adobe.com/AdobeSVGViewerExtensions/3.0/"
	 x="0px" y="0px" width="549px" height="397px" viewBox="-0.5 -0.5 549 397" enable-background="new -0.5 -0.5 549 397"
	 xml:space="preserve">
<defs>
</defs>
<path fill="#0A0B0C" d="M424.134,148.207v18.736c2.399,1.814,5.385,3.094,8.37,4.38c3.268,1.402,6.542,2.813,9.607,4.931
	c2.898-1.887,6.086-3.231,9.273-4.568c2.942-1.236,5.892-2.473,8.096-4.02c0.015-2.682,0.059-5.674,0.095-8.659
	c0.028-2.284,0.058-4.576,0.058-11.089h11.066c0,3.26-0.051,7.243-0.101,11.219c-0.029,2.284-0.059,4.575-0.059,11.096v2.27
	l-1.641,1.641c-3.78,3.773-8.508,5.762-13.235,7.742c-3.744,1.575-7.488,3.151-9.686,5.327l0.007,0.015l-0.036,0.028l-3.91,3.918
	l-3.911-3.918c-2.595-2.588-6.296-4.185-9.989-5.775c-4.685-2.017-9.368-4.033-13.452-8.11l-1.619-1.626v-2.292v-21.244H424.134
	L424.134,148.207z"/>
<path fill="#0A0B0C" d="M333.88,198.422l84.717-28.748l23.001,13.633l23-13.633l84.725,28.748c0,41.657,0,83.321,0,124.985
	c-56.613,3.261-93.955,18.751-107.501,42.851c-10.488-24.989-45.828-18.396-107.941-42.851V198.422L333.88,198.422z
	 M434.601,192.112c2.363-2.371,4.72-4.721,7.084-7.099c2.355,2.378,4.713,4.728,7.076,7.099c-1.265,3.838-3,7.019-7.033,7.033
	c0,0.036,0,0.064,0.007,0.101c0.036,0.044,0.08,0.087,0.123,0.123c-0.043,0.318-0.079,0.622-0.123,0.926
	c0,0.268,1.294,1.619,1.294,1.894l14.45,124.205l-15.672,22.032l0.008,2.342l-0.391-1.186l-0.391,1.186l0.008-2.342l-14.984-21.692
	c4.388-40.37,9.888-84.297,14.275-124.668c0-0.274,1.294-1.503,1.294-1.771c-0.036-0.304-0.072-0.607-0.115-0.926
	c0.043-0.036,0.079-0.079,0.13-0.123c0-0.036,0-0.064,0-0.101C439.038,198.971,436.624,197.244,434.601,192.112L434.601,192.112z"/>
<path fill="#0A0B0C" d="M271.231,4.911h0.021v0.021c8.125,0,18.122,1.648,27.15,6.043c1.396,0.68,2.87,1.489,4.409,2.443
	c7.532,4.634,14.023,11.428,17.738,21.063c6.26,16.228,8.284,31.819,5.675,48.025c-2.566,16.004-9.643,32.463-21.605,50.649v0.029
	l-0.275,0.404l-0.014,0.022c-1.041,1.554-2.147,3.064-3.297,4.488c-1.235,1.54-2.486,2.964-3.736,4.243
	c-6.99,7.142-15.845,12.288-25.705,12.144h-0.086l-0.47-0.015h-0.108c-1.808-0.086-3.68-0.411-5.566-0.939h-0.021
	c-1.742-0.491-3.542-1.163-5.364-1.98c-8.746-3.933-17.745-11.392-21.374-16.654c-9.23-13.387-16.365-26.333-19.784-41.903
	c-3.404-15.512-3.064-33.416,2.646-56.648l0,0l0.008-0.015v-0.021c0.903-3.687,2.262-6.969,3.968-9.889
	c1.721-2.949,3.78-5.522,6.087-7.749C242.911,7.65,260.201,4.911,271.231,4.911L271.231,4.911z M271.253,15.956v0.021h-0.021
	c-9.107,0-23.239,2.111-32.007,10.604c-1.612,1.562-3.051,3.347-4.236,5.37c-1.192,2.061-2.154,4.381-2.797,6.998h-0.008v0.007
	v0.021c-5.262,21.425-5.616,37.732-2.552,51.684c3.051,13.893,9.57,25.675,18.05,37.971c2.732,3.961,9.78,9.693,16.784,12.845
	c1.294,0.578,2.595,1.063,3.86,1.417v0.007c1.12,0.318,2.168,0.506,3.115,0.55v0.007l0.368,0.007l0,0
	c6.383,0.059,12.513-3.679,17.572-8.861c1.128-1.149,2.147-2.299,3.051-3.419c0.983-1.215,1.887-2.451,2.711-3.687l0,0l0.268-0.412
	l0.014,0.007c11.067-16.842,17.595-31.898,19.907-46.313c2.284-14.196,0.478-27.938-5.066-42.322
	c-2.755-7.127-7.604-12.187-13.243-15.664c-1.019-0.621-2.183-1.25-3.462-1.872C286.144,17.307,277.933,15.956,271.253,15.956
	L271.253,15.956z"/>
<path fill="#0A0B0C" d="M248.679,130.49v23.492c3.13,2.494,7.048,4.179,10.958,5.862c4.179,1.793,8.35,3.593,12.202,6.383
	c3.636-2.493,7.728-4.214,11.818-5.935c3.882-1.634,7.771-3.26,10.633-5.421c0.015-3.607,0.065-7.395,0.116-11.176
	c0.036-2.978,0.079-5.956,0.079-13.56h11.066c0,4.337-0.064,9.014-0.123,13.69c-0.035,2.971-0.079,5.948-0.079,13.561v2.291
	l-1.619,1.619c-4.424,4.424-10.112,6.81-15.794,9.194c-4.684,1.967-9.361,3.939-12.23,6.78l0.007,0.008l-0.028,0.036l-3.918,3.91
	l-3.91-3.91c-3.333-3.333-7.959-5.328-12.585-7.315c-5.609-2.414-11.219-4.829-16.04-9.65l-1.619-1.619v-2.291v-25.95H248.679
	L248.679,130.49z"/>
<path fill="#0A0B0C" d="M139.674,191.816l103.468-35.102l28.09,16.647l28.097-16.647l103.46,35.102c0,50.88,0,101.761,0,152.642
	c-46.479,25.646-106.221,7.293-131.557,52.283c-9.831-34.978-68.149-30.208-131.557-52.283L139.674,191.816L139.674,191.816z
	 M262.688,184.11c2.884-2.884,5.761-5.775,8.646-8.667c2.884,2.892,5.761,5.783,8.645,8.667c-1.547,4.685-3.664,8.573-8.587,8.602
	c0,0.036,0,0.08,0,0.116c0.051,0.051,0.102,0.101,0.151,0.151c-0.05,0.376-0.094,0.752-0.145,1.128c0,0.332,1.583,1.98,1.583,2.313
	l17.645,151.673l-19.141,26.919l0.008,2.855l-0.478-1.438l-0.477,1.438l0.014-2.855l-18.295-26.499
	c5.349-49.306,12.071-102.939,17.428-152.252c0-0.333,1.583-1.822,1.583-2.154c-0.051-0.376-0.094-0.752-0.145-1.128
	c0.051-0.051,0.102-0.102,0.152-0.151c0-0.036,0-0.08,0-0.116C268.102,192.495,265.152,190.384,262.688,184.11L262.688,184.11z"/>
<path fill="#0A0B0C" d="M90.254,148.207v18.736c2.407,1.814,5.385,3.094,8.37,4.38c3.268,1.402,6.542,2.813,9.607,4.931
	c2.898-1.887,6.086-3.231,9.273-4.568c2.949-1.236,5.898-2.473,8.096-4.02c0.022-2.682,0.059-5.674,0.095-8.659
	c0.028-2.284,0.058-4.576,0.058-11.089h11.073c0,3.26-0.058,7.243-0.108,11.219c-0.028,2.284-0.058,4.575-0.058,11.096v2.27
	l-1.641,1.641c-3.78,3.773-8.508,5.762-13.235,7.742c-3.744,1.575-7.488,3.151-9.686,5.327l0.007,0.015l-0.036,0.028l-3.91,3.918
	l-3.911-3.918c-2.595-2.588-6.296-4.185-9.989-5.775c-4.685-2.017-9.368-4.033-13.452-8.11l-1.619-1.626v-2.292v-21.244H90.254z"/>
<path fill="#0A0B0C" d="M0,198.422l84.717-28.748l23.008,13.633l23.001-13.633l84.717,28.748c0,41.657,0,83.321,0,124.985
	c-46.913,12.13-95.018,19.561-107.718,42.807C97.236,341.226,62.966,326.263,0,323.408V198.422L0,198.422z M100.728,192.112
	c2.356-2.364,4.713-4.728,7.077-7.099c2.356,2.371,4.713,4.734,7.076,7.099c-1.265,3.838-3,7.019-7.033,7.04
	c0,0.036,0,0.065,0.007,0.094c0.036,0.044,0.08,0.087,0.123,0.131c-0.043,0.304-0.079,0.614-0.123,0.918
	c0,0.274,1.294,1.626,1.294,1.894l14.45,124.198l-15.672,22.04l0.008,2.342l-0.391-1.186l-0.391,1.186l0.008-2.342l-14.978-21.7
	c4.381-40.37,9.889-84.29,14.269-124.668c0-0.268,1.294-1.489,1.294-1.764c-0.036-0.304-0.079-0.614-0.115-0.918
	c0.036-0.043,0.079-0.087,0.123-0.123c0-0.036,0-0.064,0-0.101C105.158,198.979,102.744,197.251,100.728,192.112L100.728,192.112z"
	/>
<path fill="#0A0B0C" d="M214.242,34.367c3.795-12.303,12.506-20.674,28.111-24.303l6.622-1.539l0.122,6.838
	c0.116,6.903-2.14,17.392-5.349,27.858c-2.711,8.804-6.137,17.753-9.396,24.54c-4.02,8.371-8.624,14.016-12.896,14.088
	c-0.694,0.015-1.389-0.086-2.054-0.289l-3.086-0.939l-0.694-3.145C211.807,60.294,210.737,45.737,214.242,34.367L214.242,34.367z"/>
<path fill="#0A0B0C" d="M326.717,30.565c4.691,11.189,5.588,25.516,0.397,43.189l-2.985,10.163l-6.614-8.284
	c-4.777-5.978-17.492-10.937-30.778-16.112c-25.711-10.025-53.288-20.781-45.531-46.298l0.477-1.575l1.229-1.041
	c8.754-7.402,22.019-11.103,35.521-10.554c9.665,0.391,19.546,2.949,28.054,7.864C315.188,12.949,322.474,20.423,326.717,30.565
	L326.717,30.565z"/>
<path fill="#0A0B0C" d="M107.948,35.877h0.022v0.028c7.242,0,16.155,1.468,24.208,5.386c1.229,0.6,2.544,1.33,3.939,2.183
	c6.744,4.156,12.556,10.243,15.888,18.873c5.559,14.414,7.352,28.249,5.038,42.655c-2.277,14.182-8.551,28.769-19.134,44.867v0.028
	l-0.274,0.412l-0.021,0.015c-0.933,1.395-1.916,2.732-2.935,3.997c-1.049,1.301-2.176,2.573-3.361,3.78
	c-6.26,6.39-14.204,10.98-23.059,10.857h-0.108l-0.47-0.015h-0.109c-1.662-0.087-3.354-0.391-5.045-0.867
	c-1.612-0.455-3.238-1.07-4.843-1.793c-7.771-3.506-15.772-10.163-19.019-14.861c-8.183-11.862-14.492-23.333-17.528-37.146
	c-3.021-13.764-2.726-29.622,2.335-50.201l0,0l0.007-0.015V64.04c0.816-3.333,2.038-6.289,3.563-8.906
	c1.525-2.616,3.383-4.922,5.472-6.946c10.171-9.838,25.596-12.281,35.434-12.281V35.877L107.948,35.877z M107.971,46.922v0.028
	h-0.022v-0.028c-7.9,0-20.146,1.829-27.735,9.18c-1.358,1.315-2.588,2.841-3.614,4.612c-1.033,1.764-1.857,3.751-2.399,5.963h-0.007
	v0.015v0.021c-4.612,18.758-4.923,33.026-2.248,45.221c2.667,12.137,8.377,22.452,15.801,33.215
	c2.342,3.391,8.407,8.327,14.479,11.066c1.135,0.514,2.241,0.933,3.282,1.222c0.961,0.275,1.85,0.441,2.623,0.484l0,0l0.369,0.015
	l0,0c5.407,0.036,10.618-3.159,14.955-7.568c0.904-0.933,1.786-1.923,2.617-2.956c0.86-1.063,1.648-2.133,2.363-3.195l-0.007-0.007
	l0.274-0.412l0.008,0.007c9.7-14.753,15.418-27.931,17.441-40.529c1.988-12.39,0.412-24.382-4.431-36.944
	c-2.363-6.13-6.542-10.488-11.392-13.474c-0.868-0.535-1.872-1.077-2.993-1.619C120.895,48.108,113.761,46.929,107.971,46.922
	L107.971,46.922z"/>
<path fill="#0A0B0C" d="M57.118,62.297c3.419-11.074,11.24-18.599,25.242-21.852l6.628-1.54l0.116,6.831
	c0.108,6.159-1.895,15.477-4.742,24.743c-2.393,7.785-5.421,15.7-8.306,21.714c-3.643,7.575-7.879,12.693-11.927,12.78l0,0
	c-0.716,0.015-1.409-0.08-2.067-0.282l-3.043-0.947l-0.694-3.137C54.942,85.363,53.996,72.439,57.118,62.297L57.118,62.297z"/>
<path fill="#0A0B0C" d="M157.435,58.885c4.186,9.99,4.987,22.763,0.368,38.484l-2.985,10.155l-6.613-8.276
	c-4.099-5.125-15.216-9.462-26.832-13.994C98.45,76.321,73.859,66.736,80.871,43.677l0.478-1.583l1.229-1.034
	c7.836-6.628,19.69-9.946,31.739-9.455c8.617,0.354,17.428,2.632,25.018,7.02C147.119,43.121,153.632,49.814,157.435,58.885
	L157.435,58.885z"/>
<path fill="#0A0B0C" d="M441.056,35.877h0.021v0.028c7.243,0,16.155,1.468,24.208,5.386c1.229,0.6,2.544,1.33,3.939,2.183
	c6.744,4.156,12.556,10.243,15.888,18.873c5.559,14.414,7.352,28.249,5.039,42.655c-2.277,14.182-8.552,28.769-19.134,44.867v0.028
	l-0.275,0.412l-0.021,0.015c-0.933,1.395-1.915,2.732-2.935,3.997c-1.048,1.301-2.168,2.573-3.361,3.78
	c-6.26,6.39-14.203,10.98-23.059,10.857h-0.108l-0.47-0.015h-0.108c-1.662-0.087-3.354-0.391-5.046-0.867
	c-1.611-0.455-3.238-1.07-4.843-1.793c-7.771-3.506-15.772-10.163-19.018-14.861c-8.183-11.862-14.493-23.333-17.529-37.146
	c-3.021-13.764-2.725-29.622,2.335-50.201l0,0l0.008-0.015V64.04c0.816-3.333,2.038-6.289,3.563-8.906
	c1.524-2.616,3.383-4.922,5.479-6.946c10.163-9.838,25.589-12.281,35.427-12.281V35.877z M441.077,46.922v0.028h-0.021v-0.028
	c-7.9,0-20.146,1.829-27.735,9.18c-1.359,1.315-2.588,2.841-3.614,4.612c-1.033,1.764-1.851,3.751-2.399,5.963h-0.008v0.015v0.021
	c-4.611,18.758-4.923,33.026-2.248,45.221c2.667,12.137,8.378,22.452,15.802,33.215c2.342,3.391,8.406,8.327,14.479,11.066
	c1.135,0.514,2.24,0.933,3.289,1.222c0.961,0.275,1.843,0.441,2.616,0.484l0,0l0.368,0.015l0,0
	c5.407,0.036,10.626-3.159,14.956-7.568c0.903-0.933,1.785-1.923,2.624-2.956c0.853-1.063,1.641-2.133,2.356-3.195l-0.008-0.007
	l0.275-0.412l0.007,0.007c9.7-14.753,15.418-27.931,17.442-40.529c1.987-12.39,0.412-24.382-4.431-36.944
	c-2.364-6.13-6.542-10.488-11.393-13.474c-0.867-0.535-1.872-1.077-2.992-1.619C454.002,48.108,446.874,46.929,441.077,46.922
	L441.077,46.922z"/>
<path fill="#0A0B0C" d="M390.226,62.297c3.419-11.074,11.24-18.599,25.241-21.852l6.629-1.54l0.115,6.831
	c0.108,6.159-1.887,15.477-4.742,24.743c-2.385,7.785-5.421,15.7-8.305,21.714c-3.644,7.575-7.879,12.693-11.92,12.78l0,0
	c-0.723,0.015-1.417-0.08-2.074-0.282l-3.044-0.947l-0.693-3.137C388.05,85.363,387.103,72.439,390.226,62.297L390.226,62.297z"/>
<path fill="#0A0B0C" d="M490.541,58.885c4.186,9.99,4.988,22.763,0.369,38.484l-2.985,10.155l-6.614-8.276
	c-4.099-5.125-15.216-9.462-26.832-13.994c-22.921-8.934-47.512-18.519-40.501-41.577l0.478-1.583l1.229-1.034
	c7.836-6.628,19.69-9.946,31.74-9.455c8.616,0.354,17.428,2.632,25.018,7.02C480.227,43.121,486.739,49.814,490.541,58.885
	L490.541,58.885z"/>
</svg>
