<svg xmlns="http://www.w3.org/2000/svg" xmlns:xlink="http://www.w3.org/1999/xlink" version="1.1" x="0px" y="0px" viewBox="0 0 100 125" enable-background="new 0 0 100 100" xml:space="preserve"><path d="M77.4,95l-3.1-6.9H77l-1.9-4.3h-2.8L69.7,78h3.2L71,73.7h-3.3L65.5,69l10.6-6.8V29.5l-3.8-6.1l0.2-9.9c0,0,0.4-8.5-22.4-8.5  s-22.4,8.5-22.4,8.5l0.2,9.9l-3.8,6.1v32.6l10.1,6.5l-2.3,5.1h-4.4L25.6,78h4.3l-2.6,5.8h-4.4l-1.9,4.3h4.3L22.2,95l4.8,0l3.1-6.8  h9.9h2.6h27l3.1,6.9H77.4z M69.6,58.2c0,1.6-1.3,2.9-2.9,2.9c-1.6,0-2.9-1.3-2.9-2.9c0-1.6,1.3-2.9,2.9-2.9  C68.3,55.2,69.6,56.5,69.6,58.2z M53.5,10c0,0,9.8,1.1,13.2,4.5v8.8l-13.2-3.1V10z M50.1,27c2.2,0,4,1.8,4,4c0,2.2-1.8,4-4,4  c-2.2,0-4-1.8-4-4C46.1,28.8,47.9,27,50.1,27z M32.8,14.6c3.4-3.4,13.2-4.5,13.2-4.5v10.3l-13.2,3.1V14.6z M32.8,58.2  c0-1.6,1.3-2.9,2.9-2.9c1.6,0,2.9,1.3,2.9,2.9c0,1.6-1.3,2.9-2.9,2.9C34.1,61.1,32.8,59.8,32.8,58.2z M38.2,70.3h11.9h11.3l1.6,3.4  H47.2h-6.3h-4.3L38.2,70.3z M42.6,83.8h-2.6H32l2.6-5.8h6.2h6.3h17.7l2.6,5.8H42.6z"/><text x="0" y="115" fill="#000000" font-size="5px" font-weight="bold" font-family="'Helvetica Neue', Helvetica, Arial-Unicode, Arial, Sans-serif">Created by Evan Shuster</text><text x="0" y="120" fill="#000000" font-size="5px" font-weight="bold" font-family="'Helvetica Neue', Helvetica, Arial-Unicode, Arial, Sans-serif">from the Noun Project</text></svg>