<?xml version="1.0" encoding="utf-8"?>
<!-- Generator: Adobe Illustrator 13.0.0, SVG Export Plug-In  -->
<!DOCTYPE svg PUBLIC "-//W3C//DTD SVG 1.1//EN" "http://www.w3.org/Graphics/SVG/1.1/DTD/svg11.dtd" [
	<!ENTITY ns_flows "http://ns.adobe.com/Flows/1.0/">
]>
<svg version="1.1"
	 xmlns="http://www.w3.org/2000/svg" xmlns:xlink="http://www.w3.org/1999/xlink" xmlns:a="http://ns.adobe.com/AdobeSVGViewerExtensions/3.0/"
	 x="0px" y="0px" width="345px" height="551px" viewBox="-0.5 -0.5 345 551" enable-background="new -0.5 -0.5 345 551"
	 xml:space="preserve">
<defs>
</defs>
<path d="M345.2,550.8l-19-42.2h16.5l-11.6-26.3H314L298,446.8h19.6L306,420.4h-20.2l-13.5-28.8l64.9-41.6V149.9L314,112.6l1.2-60.6
	c0,0,2.4-52-137.1-52S41,52,41,52l1.2,60.6L19,149.9v199.5l61.8,39.8l-14.1,31.2H39.8l-11.6,26.3h26.3l-15.9,35.5H11.6L0,508.6h26.3
	l-19,42.2h29.4l19-41.6h60.6h15.9h165.2l19,42.2h28.8V550.8z M297.4,325.6c0,9.8-8,17.7-17.7,17.7s-17.7-8-17.7-17.7
	s8-17.7,17.7-17.7C289.5,307.2,297.4,315.2,297.4,325.6z M198.9,30.6c0,0,60,6.7,80.8,27.5V112l-80.8-19V30.6z M178.1,134.6
	c13.5,0,24.5,11,24.5,24.5s-11,24.5-24.5,24.5s-24.5-11-24.5-24.5S164.6,134.6,178.1,134.6z M72.2,58.8C93,37.9,153,31.2,153,31.2
	v63l-80.8,19V58.8z M72.2,325.6c0-9.8,8-17.7,17.7-17.7s17.7,8,17.7,17.7s-8,17.7-17.7,17.7S72.2,335.4,72.2,325.6z M105.3,399.6
	h72.8h69.2l9.8,20.8h-96.7h-38.6H95.5L105.3,399.6z M132.2,482.3h-15.9h-49l15.9-35.5h37.9h38.6h108.3l15.9,35.5H132.2z"/>
</svg>
